%FSLAX34Y34*%
%MOMM*%
%LNCOPPER_BOTTOM*%
G71*
G01*
%ADD10C,0.222*%
%ADD11C,0.500*%
%ADD12C,0.700*%
%ADD13R,2.900X6.900*%
%ADD14C,0.300*%
%ADD15C,1.900*%
%ADD16C,1.800*%
%LPD*%
G54D10*
X-55333Y493890D02*
X-59333Y491668D01*
X-60667Y489445D01*
X-60667Y485001D01*
G54D10*
X-50000Y485001D02*
X-50000Y502779D01*
X-56667Y502779D01*
X-59333Y501668D01*
X-60667Y499445D01*
X-60667Y497223D01*
X-59333Y495001D01*
X-56667Y493890D01*
X-50000Y493890D01*
G54D10*
X-65556Y488334D02*
X-66889Y486112D01*
X-69556Y485001D01*
X-72223Y485001D01*
X-74889Y486112D01*
X-76223Y488334D01*
X-76223Y490557D01*
X-74889Y492779D01*
X-72223Y493890D01*
X-69556Y493890D01*
X-66889Y495001D01*
X-65556Y497223D01*
X-65556Y499445D01*
X-66889Y501668D01*
X-69556Y502779D01*
X-72223Y502779D01*
X-74889Y501668D01*
X-76223Y499445D01*
G54D10*
X-86445Y485001D02*
X-86445Y502779D01*
G54D10*
X-81112Y502779D02*
X-91779Y502779D01*
G54D11*
X238522Y350441D02*
X254000Y368300D01*
X477838Y368697D01*
G36*
X411641Y306306D02*
X441641Y306306D01*
X441641Y276306D01*
X411641Y276306D01*
X411641Y306306D01*
G37*
G36*
X556103Y306306D02*
X586103Y306306D01*
X586103Y276306D01*
X556103Y276306D01*
X556103Y306306D01*
G37*
G36*
X556103Y91994D02*
X586103Y91994D01*
X586103Y61994D01*
X556103Y61994D01*
X556103Y91994D01*
G37*
G36*
X411641Y334881D02*
X441641Y334881D01*
X441641Y304881D01*
X411641Y304881D01*
X411641Y334881D01*
G37*
G36*
X556103Y334881D02*
X586103Y334881D01*
X586103Y304881D01*
X556103Y304881D01*
X556103Y334881D01*
G37*
X572294Y367903D02*
G54D12*
D03*
X477838Y368697D02*
G54D12*
D03*
G54D11*
X572294Y367903D02*
X572294Y321072D01*
X571103Y319881D01*
G36*
X556103Y117394D02*
X586103Y117394D01*
X586103Y87394D01*
X556103Y87394D01*
X556103Y117394D01*
G37*
G36*
X556103Y277334D02*
X586103Y277334D01*
X586103Y247334D01*
X556103Y247334D01*
X556103Y277334D01*
G37*
G36*
X556103Y251141D02*
X586103Y251141D01*
X586103Y221141D01*
X556103Y221141D01*
X556103Y251141D01*
G37*
X201216Y346869D02*
G54D13*
D03*
X153988Y346869D02*
G54D13*
D03*
G54D14*
X160734Y319087D02*
X161925Y319087D01*
X174228Y306784D01*
G54D11*
X153988Y346869D02*
X153988Y326231D01*
X177800Y302419D01*
X222250Y302419D01*
X276622Y356791D01*
X415528Y356791D01*
X426641Y345678D01*
X426641Y303609D01*
X427038Y303213D01*
G54D11*
X571103Y76994D02*
X571103Y67469D01*
X540941Y37306D01*
X540941Y12303D01*
X533400Y4763D01*
X328216Y4763D01*
G54D11*
X237728Y350837D02*
X209550Y350837D01*
X238522Y350441D02*
G54D15*
D03*
G36*
X303817Y191922D02*
X290317Y191922D01*
X290317Y205422D01*
X303817Y205422D01*
X303817Y191922D01*
G37*
G36*
X303817Y171922D02*
X290317Y171922D01*
X290317Y185422D01*
X303817Y185422D01*
X303817Y171922D01*
G37*
G36*
X303817Y151922D02*
X290317Y151922D01*
X290317Y165422D01*
X303817Y165422D01*
X303817Y151922D01*
G37*
G36*
X303817Y131922D02*
X290317Y131922D01*
X290317Y145422D01*
X303817Y145422D01*
X303817Y131922D01*
G37*
G36*
X303817Y111922D02*
X290317Y111922D01*
X290317Y125422D01*
X303817Y125422D01*
X303817Y111922D01*
G37*
G36*
X303817Y91922D02*
X290317Y91922D01*
X290317Y105422D01*
X303817Y105422D01*
X303817Y91922D01*
G37*
G36*
X303817Y71922D02*
X290317Y71922D01*
X290317Y85422D01*
X303817Y85422D01*
X303817Y71922D01*
G37*
G36*
X303817Y51922D02*
X290317Y51922D01*
X290317Y65422D01*
X303817Y65422D01*
X303817Y51922D01*
G37*
G36*
X163827Y191922D02*
X150327Y191922D01*
X150327Y205422D01*
X163827Y205422D01*
X163827Y191922D01*
G37*
G36*
X163827Y171922D02*
X150327Y171922D01*
X150327Y185422D01*
X163827Y185422D01*
X163827Y171922D01*
G37*
G36*
X163827Y151922D02*
X150327Y151922D01*
X150327Y165422D01*
X163827Y165422D01*
X163827Y151922D01*
G37*
G36*
X163827Y131922D02*
X150327Y131922D01*
X150327Y145422D01*
X163827Y145422D01*
X163827Y131922D01*
G37*
G36*
X163827Y111922D02*
X150327Y111922D01*
X150327Y125422D01*
X163827Y125422D01*
X163827Y111922D01*
G37*
G36*
X163827Y91922D02*
X150327Y91922D01*
X150327Y105422D01*
X163827Y105422D01*
X163827Y91922D01*
G37*
G36*
X163827Y71922D02*
X150327Y71922D01*
X150327Y85422D01*
X163827Y85422D01*
X163827Y71922D01*
G37*
G36*
X163827Y51922D02*
X150327Y51922D01*
X150327Y65422D01*
X163827Y65422D01*
X163827Y51922D01*
G37*
X378619Y302816D02*
G54D16*
D03*
X378619Y277416D02*
G54D16*
D03*
X378619Y252016D02*
G54D16*
D03*
X378619Y226616D02*
G54D16*
D03*
X378619Y201216D02*
G54D16*
D03*
X378619Y175816D02*
G54D16*
D03*
X378619Y150416D02*
G54D16*
D03*
X378619Y125016D02*
G54D16*
D03*
X607219Y302816D02*
G54D16*
D03*
X607219Y277416D02*
G54D16*
D03*
X607219Y252016D02*
G54D16*
D03*
X607219Y226616D02*
G54D16*
D03*
X607219Y201216D02*
G54D16*
D03*
X607219Y175816D02*
G54D16*
D03*
X607219Y150416D02*
G54D16*
D03*
X607219Y125016D02*
G54D16*
D03*
X378619Y302816D02*
G54D15*
D03*
X378619Y277416D02*
G54D15*
D03*
X378619Y252016D02*
G54D15*
D03*
X378619Y226616D02*
G54D15*
D03*
X378619Y201216D02*
G54D15*
D03*
X378619Y175816D02*
G54D15*
D03*
X378619Y150416D02*
G54D15*
D03*
X378619Y125016D02*
G54D15*
D03*
X607219Y302816D02*
G54D15*
D03*
X607219Y277416D02*
G54D15*
D03*
X607219Y252016D02*
G54D15*
D03*
X607219Y226616D02*
G54D15*
D03*
X607219Y201216D02*
G54D15*
D03*
X607219Y175816D02*
G54D15*
D03*
X607219Y150416D02*
G54D15*
D03*
X607219Y125016D02*
G54D15*
D03*
X304403Y25797D02*
G54D15*
D03*
X328216Y138509D02*
G54D12*
D03*
X128899Y198672D02*
G54D12*
D03*
X128899Y58672D02*
G54D12*
D03*
G54D11*
X128899Y58672D02*
X128899Y198672D01*
X128899Y295983D01*
X152003Y319087D01*
G54D11*
X328216Y138509D02*
X328216Y4763D01*
G54D11*
X328216Y138509D02*
X340122Y138509D01*
X354806Y123825D01*
X377428Y123825D01*
X378619Y125016D01*
G54D11*
X607219Y150416D02*
X567531Y150416D01*
X426641Y291306D01*
M02*
