%FSLAX34Y34*%
%MOMM*%
%LNCOPPER_TOP*%
G71*
G01*
%ADD10R,2.900X6.900*%
%ADD11C,0.700*%
%ADD12C,0.500*%
%ADD13R,1.300X2.000*%
%ADD14C,1.900*%
%ADD15R,2.600X1.400*%
%ADD16C,0.300*%
%LPD*%
X153988Y346869D02*
G54D10*
D03*
X201216Y346869D02*
G54D10*
D03*
X572294Y367903D02*
G54D11*
D03*
X477838Y368697D02*
G54D11*
D03*
G54D12*
X477838Y368697D02*
X506810Y368697D01*
X507207Y368300D01*
G54D12*
X535207Y368300D02*
X571897Y368300D01*
X572294Y367903D01*
X544807Y368200D02*
G54D13*
D03*
X507207Y368300D02*
G54D13*
D03*
G54D12*
X238522Y350837D02*
X210344Y350837D01*
X238522Y350441D02*
G54D14*
D03*
G36*
X303817Y191922D02*
X290317Y191922D01*
X290317Y205422D01*
X303817Y205422D01*
X303817Y191922D01*
G37*
G36*
X303817Y171922D02*
X290317Y171922D01*
X290317Y185422D01*
X303817Y185422D01*
X303817Y171922D01*
G37*
G36*
X303817Y151922D02*
X290317Y151922D01*
X290317Y165422D01*
X303817Y165422D01*
X303817Y151922D01*
G37*
G36*
X303817Y131922D02*
X290317Y131922D01*
X290317Y145422D01*
X303817Y145422D01*
X303817Y131922D01*
G37*
G36*
X303817Y111922D02*
X290317Y111922D01*
X290317Y125422D01*
X303817Y125422D01*
X303817Y111922D01*
G37*
G36*
X303817Y91922D02*
X290317Y91922D01*
X290317Y105422D01*
X303817Y105422D01*
X303817Y91922D01*
G37*
G36*
X303817Y71922D02*
X290317Y71922D01*
X290317Y85422D01*
X303817Y85422D01*
X303817Y71922D01*
G37*
G36*
X303817Y51922D02*
X290317Y51922D01*
X290317Y65422D01*
X303817Y65422D01*
X303817Y51922D01*
G37*
G36*
X164077Y191672D02*
X150077Y191672D01*
X150077Y205672D01*
X164077Y205672D01*
X164077Y191672D01*
G37*
G36*
X163827Y171922D02*
X150327Y171922D01*
X150327Y185422D01*
X163827Y185422D01*
X163827Y171922D01*
G37*
G36*
X163827Y151922D02*
X150327Y151922D01*
X150327Y165422D01*
X163827Y165422D01*
X163827Y151922D01*
G37*
G36*
X163827Y131922D02*
X150327Y131922D01*
X150327Y145422D01*
X163827Y145422D01*
X163827Y131922D01*
G37*
G36*
X163827Y111922D02*
X150327Y111922D01*
X150327Y125422D01*
X163827Y125422D01*
X163827Y111922D01*
G37*
G36*
X163827Y91922D02*
X150327Y91922D01*
X150327Y105422D01*
X163827Y105422D01*
X163827Y91922D01*
G37*
G36*
X163827Y71922D02*
X150327Y71922D01*
X150327Y85422D01*
X163827Y85422D01*
X163827Y71922D01*
G37*
G36*
X163827Y51922D02*
X150327Y51922D01*
X150327Y65422D01*
X163827Y65422D01*
X163827Y51922D01*
G37*
X150727Y178672D02*
G54D15*
D03*
X150727Y198672D02*
G54D15*
D03*
G36*
X137727Y165672D02*
X163727Y165672D01*
X163727Y151672D01*
X137727Y151672D01*
X137727Y165672D01*
G37*
X150727Y138672D02*
G54D15*
D03*
X150727Y118672D02*
G54D15*
D03*
X150727Y98672D02*
G54D15*
D03*
G36*
X137727Y85672D02*
X163727Y85672D01*
X163727Y71672D01*
X137727Y71672D01*
X137727Y85672D01*
G37*
X150727Y58672D02*
G54D15*
D03*
X303417Y198672D02*
G54D15*
D03*
X303417Y178672D02*
G54D15*
D03*
X303417Y158672D02*
G54D15*
D03*
G36*
X290417Y145672D02*
X316417Y145672D01*
X316417Y131672D01*
X290417Y131672D01*
X290417Y145672D01*
G37*
G36*
X290417Y125672D02*
X316417Y125672D01*
X316417Y111672D01*
X290417Y111672D01*
X290417Y125672D01*
G37*
X303417Y98672D02*
G54D15*
D03*
G36*
X290417Y85672D02*
X316417Y85672D01*
X316417Y71672D01*
X290417Y71672D01*
X290417Y85672D01*
G37*
X303417Y58672D02*
G54D15*
D03*
X378619Y302816D02*
G54D14*
D03*
X378619Y277416D02*
G54D14*
D03*
X378619Y252016D02*
G54D14*
D03*
X378619Y226616D02*
G54D14*
D03*
X378619Y201216D02*
G54D14*
D03*
X378619Y175816D02*
G54D14*
D03*
X378619Y150416D02*
G54D14*
D03*
X378619Y125016D02*
G54D14*
D03*
X607219Y302816D02*
G54D14*
D03*
X607219Y277416D02*
G54D14*
D03*
X607219Y252016D02*
G54D14*
D03*
X607219Y226616D02*
G54D14*
D03*
X607219Y201216D02*
G54D14*
D03*
X607219Y175816D02*
G54D14*
D03*
X607219Y150416D02*
G54D14*
D03*
X607219Y125016D02*
G54D14*
D03*
G54D16*
X378619Y252016D02*
X117078Y252413D01*
X95647Y230981D01*
X95647Y139303D01*
X116284Y118666D01*
X150727Y118672D01*
G54D16*
X378619Y226616D02*
X127794Y227013D01*
X107156Y206375D01*
X107156Y148828D01*
X117078Y138906D01*
X150492Y138906D01*
X150727Y138672D01*
G54D16*
X378619Y201216D02*
X371475Y201216D01*
X354012Y218678D01*
X128588Y218678D01*
X115094Y205184D01*
X115094Y190500D01*
X127794Y177800D01*
X149855Y177800D01*
X150727Y178672D01*
G54D16*
X378619Y175816D02*
X378619Y179784D01*
X346869Y211534D01*
X236141Y211534D01*
X182562Y157956D01*
X157792Y157956D01*
X157077Y158672D01*
X304403Y25797D02*
G54D14*
D03*
G54D16*
X304403Y25797D02*
X304403Y57686D01*
X303417Y58672D01*
X328216Y138509D02*
G54D11*
D03*
G54D12*
X328216Y138509D02*
X303579Y138509D01*
X303417Y138672D01*
G54D16*
X607219Y226616D02*
X607219Y225028D01*
X545703Y163513D01*
X335756Y163513D01*
X330597Y158353D01*
X303736Y158353D01*
X303417Y158672D01*
G54D16*
X303417Y78672D02*
X253297Y78672D01*
X233759Y59134D01*
X151189Y59134D01*
X150727Y58672D01*
X128899Y198672D02*
G54D11*
D03*
X128899Y58672D02*
G54D11*
D03*
G54D12*
X128899Y198672D02*
X150727Y198672D01*
G54D12*
X128899Y58672D02*
X150727Y58672D01*
M02*
