%FSLAX34Y34*%
%MOMM*%
%LNSILK_TOP*%
G71*
G01*
%ADD10C,0.111*%
%ADD11C,0.150*%
%ADD12C,0.100*%
%ADD13C,0.254*%
%ADD14C,0.152*%
%ADD15C,0.200*%
%ADD16C,0.144*%
%ADD17C,0.318*%
%LPD*%
G54D10*
X223838Y338295D02*
X227171Y329406D01*
X230504Y338295D01*
G54D10*
X238282Y331073D02*
X237615Y329962D01*
X236282Y329406D01*
X234948Y329406D01*
X233615Y329962D01*
X232948Y331073D01*
X232948Y336628D01*
X233615Y337740D01*
X234948Y338295D01*
X236282Y338295D01*
X237615Y337740D01*
X238282Y336628D01*
G54D10*
X246059Y331073D02*
X245392Y329962D01*
X244059Y329406D01*
X242726Y329406D01*
X241392Y329962D01*
X240726Y331073D01*
X240726Y336628D01*
X241392Y337740D01*
X242726Y338295D01*
X244059Y338295D01*
X245392Y337740D01*
X246059Y336628D01*
G54D10*
X116967Y333851D02*
X119633Y333851D01*
X119633Y331073D01*
X118967Y329962D01*
X117633Y329406D01*
X116300Y329406D01*
X114967Y329962D01*
X114300Y331073D01*
X114300Y336628D01*
X114967Y337740D01*
X116300Y338295D01*
X117633Y338295D01*
X118967Y337740D01*
X119633Y336628D01*
G54D10*
X122077Y329406D02*
X122077Y338295D01*
X127410Y329406D01*
X127410Y338295D01*
G54D10*
X129854Y329406D02*
X129854Y338295D01*
X133187Y338295D01*
X134521Y337740D01*
X135187Y336628D01*
X135187Y331073D01*
X134521Y329962D01*
X133187Y329406D01*
X129854Y329406D01*
G54D11*
X543206Y361300D02*
X543207Y375300D01*
X508207Y375300D01*
X508207Y361300D01*
X543206Y361300D01*
G36*
X543206Y361300D02*
X543207Y375300D01*
X533206Y375300D01*
X533206Y361300D01*
X543206Y361300D01*
G37*
G54D12*
X543206Y361300D02*
X543207Y375300D01*
X533206Y375300D01*
X533206Y361300D01*
X543206Y361300D01*
G54D13*
X307077Y48672D02*
X307077Y208672D01*
X147077Y208672D01*
X147077Y48672D01*
X307077Y48672D01*
G54D14*
X193487Y222422D02*
X198157Y222422D01*
X199707Y222932D01*
X200237Y223462D01*
X200747Y224512D01*
X200747Y225552D01*
X200237Y226592D01*
X199707Y227102D01*
X198157Y227602D01*
X193487Y227602D01*
X193487Y216712D01*
G54D14*
X197117Y222422D02*
X200747Y216712D01*
G54D14*
X210937Y227602D02*
X204177Y227602D01*
X204177Y216712D01*
G54D14*
X204177Y222422D02*
X208347Y222422D01*
G54D14*
X222697Y216712D02*
X222697Y227602D01*
X218527Y216712D01*
X214367Y227602D01*
X214367Y216712D01*
G54D14*
X232347Y226052D02*
X232857Y223972D01*
X232347Y222422D01*
X231307Y221382D01*
X229757Y220872D01*
X229227Y220872D01*
X227677Y221382D01*
X226637Y222422D01*
X226127Y223972D01*
X226127Y224512D01*
X226637Y226052D01*
X227677Y227102D01*
X229227Y227602D01*
X229757Y227602D01*
X231307Y227102D01*
X232347Y226052D01*
G54D14*
X232857Y223972D02*
X232857Y221382D01*
X232347Y218792D01*
X231307Y217222D01*
X229757Y216712D01*
X228717Y216712D01*
X227137Y217222D01*
X226637Y218262D01*
G54D14*
X242537Y227602D02*
X237327Y227602D01*
X236817Y222932D01*
X237327Y223462D01*
X238897Y223972D01*
X240447Y223972D01*
X241997Y223462D01*
X243037Y222422D01*
X243577Y220872D01*
X243577Y219832D01*
X243037Y218262D01*
X241997Y217222D01*
X240447Y216712D01*
X238897Y216712D01*
X237327Y217222D01*
X236817Y217752D01*
X236287Y218792D01*
G54D11*
X257226Y193122D02*
X260406Y193122D01*
X261776Y193582D01*
X262696Y194492D01*
X263146Y195412D01*
X263606Y196782D01*
X263606Y199042D01*
X263146Y200412D01*
X262696Y201302D01*
X261776Y202212D01*
X260406Y202672D01*
X257226Y202672D01*
X257226Y193122D01*
G54D11*
X266606Y202672D02*
X266606Y193122D01*
G54D11*
X274146Y202672D02*
X272316Y202672D01*
X271406Y202212D01*
X270516Y201302D01*
X270056Y200412D01*
X269596Y199042D01*
X269596Y196782D01*
X270056Y195412D01*
X270516Y194492D01*
X271406Y193582D01*
X272316Y193122D01*
X274146Y193122D01*
X275036Y193582D01*
X275946Y194492D01*
X276406Y195412D01*
X276866Y196782D01*
X276866Y199042D01*
X276406Y200412D01*
X275946Y201302D01*
X275036Y202212D01*
X274146Y202672D01*
G54D11*
X280316Y200412D02*
X280316Y200872D01*
X280776Y201762D01*
X281236Y202212D01*
X282146Y202672D01*
X283956Y202672D01*
X284866Y202212D01*
X285326Y201762D01*
X285776Y200872D01*
X285776Y199952D01*
X285326Y199042D01*
X284406Y197672D01*
X279866Y193122D01*
X286236Y193122D01*
G54D11*
X257236Y173582D02*
X260406Y173582D01*
X261776Y174032D01*
X262696Y174952D01*
X263146Y175862D01*
X263586Y177212D01*
X263586Y179492D01*
X263146Y180842D01*
X262696Y181752D01*
X261776Y182672D01*
X260406Y183132D01*
X257236Y183132D01*
X257236Y173582D01*
G54D11*
X266606Y183132D02*
X266606Y173582D01*
G54D11*
X274146Y183132D02*
X272316Y183132D01*
X271406Y182672D01*
X270496Y181752D01*
X270056Y180842D01*
X269606Y179492D01*
X269606Y177212D01*
X270056Y175862D01*
X270496Y174952D01*
X271406Y174032D01*
X272316Y173582D01*
X274146Y173582D01*
X275036Y174032D01*
X275956Y174952D01*
X276406Y175862D01*
X276866Y177212D01*
X276866Y179492D01*
X276406Y180842D01*
X275956Y181752D01*
X275036Y182672D01*
X274146Y183132D01*
G54D11*
X279866Y181302D02*
X280776Y181752D01*
X282146Y183132D01*
X282146Y173582D01*
G54D11*
X257236Y153592D02*
X260406Y153592D01*
X261776Y154042D01*
X262696Y154932D01*
X263146Y155852D01*
X263586Y157222D01*
X263586Y159482D01*
X263146Y160852D01*
X262696Y161762D01*
X261776Y162682D01*
X260406Y163142D01*
X257236Y163142D01*
X257236Y153592D01*
G54D11*
X266606Y163142D02*
X266606Y153592D01*
G54D11*
X274146Y163142D02*
X272316Y163142D01*
X271406Y162682D01*
X270496Y161762D01*
X270056Y160852D01*
X269606Y159482D01*
X269606Y157222D01*
X270056Y155852D01*
X270496Y154932D01*
X271406Y154042D01*
X272316Y153592D01*
X274146Y153592D01*
X275036Y154042D01*
X275956Y154932D01*
X276406Y155852D01*
X276866Y157222D01*
X276866Y159482D01*
X276406Y160852D01*
X275956Y161762D01*
X275036Y162682D01*
X274146Y163142D01*
G54D11*
X283496Y163142D02*
X282586Y163142D01*
X281236Y162682D01*
X280326Y161312D01*
X279866Y159022D01*
X279866Y157682D01*
X280326Y155392D01*
X281236Y154042D01*
X282586Y153592D01*
X283496Y153592D01*
X284866Y154042D01*
X285786Y155392D01*
X286236Y157682D01*
X286236Y159022D01*
X285786Y161312D01*
X284866Y162682D01*
X283496Y163142D01*
G54D11*
X258146Y143122D02*
X263146Y143122D01*
X260406Y139492D01*
X261776Y139492D01*
X262696Y139032D01*
X263146Y138572D01*
X263586Y137202D01*
X263586Y136312D01*
X263146Y134942D01*
X262236Y134032D01*
X260866Y133572D01*
X259496Y133572D01*
X258146Y134032D01*
X257686Y134492D01*
X257236Y135402D01*
G54D11*
X267496Y135402D02*
X267036Y135862D01*
X266606Y135402D01*
X267036Y134942D01*
X267496Y135402D01*
G54D11*
X271406Y143122D02*
X276406Y143122D01*
X273696Y139492D01*
X275036Y139492D01*
X275956Y139032D01*
X276406Y138572D01*
X276866Y137202D01*
X276866Y136312D01*
X276406Y134942D01*
X275496Y134032D01*
X274146Y133572D01*
X272776Y133572D01*
X271406Y134032D01*
X270946Y134492D01*
X270496Y135402D01*
G54D11*
X279866Y143122D02*
X283496Y133572D01*
X287126Y143122D01*
G54D11*
X257236Y113582D02*
X260406Y113582D01*
X261776Y114042D01*
X262696Y114952D01*
X263146Y115842D01*
X263586Y117212D01*
X263586Y119502D01*
X263146Y120852D01*
X262696Y121762D01*
X261776Y122672D01*
X260406Y123132D01*
X257236Y123132D01*
X257236Y113582D01*
G54D11*
X266606Y123132D02*
X266606Y113582D01*
G54D11*
X274146Y123132D02*
X272316Y123132D01*
X271406Y122672D01*
X270496Y121762D01*
X270056Y120852D01*
X269606Y119502D01*
X269606Y117212D01*
X270056Y115842D01*
X270496Y114952D01*
X271406Y114042D01*
X272316Y113582D01*
X274146Y113582D01*
X275036Y114042D01*
X275956Y114952D01*
X276406Y115842D01*
X276866Y117212D01*
X276866Y119502D01*
X276406Y120852D01*
X275956Y121762D01*
X275036Y122672D01*
X274146Y123132D01*
G54D11*
X284406Y113582D02*
X284406Y123132D01*
X279866Y116762D01*
X286696Y116762D01*
G54D11*
X257236Y93592D02*
X260406Y93592D01*
X261776Y94022D01*
X262696Y94942D01*
X263146Y95852D01*
X263586Y97222D01*
X263586Y99482D01*
X263146Y100862D01*
X262696Y101772D01*
X261776Y102662D01*
X260406Y103122D01*
X257236Y103122D01*
X257236Y93592D01*
G54D11*
X266606Y103122D02*
X266606Y93592D01*
G54D11*
X274146Y103122D02*
X272316Y103122D01*
X271406Y102662D01*
X270496Y101772D01*
X270056Y100862D01*
X269606Y99482D01*
X269606Y97222D01*
X270056Y95852D01*
X270496Y94942D01*
X271406Y94022D01*
X272316Y93592D01*
X274146Y93592D01*
X275036Y94022D01*
X275956Y94942D01*
X276406Y95852D01*
X276866Y97222D01*
X276866Y99482D01*
X276406Y100862D01*
X275956Y101772D01*
X275036Y102662D01*
X274146Y103122D01*
G54D11*
X280776Y103122D02*
X285786Y103122D01*
X283036Y99482D01*
X284406Y99482D01*
X285326Y99032D01*
X285786Y98572D01*
X286236Y97222D01*
X286236Y96312D01*
X285786Y94942D01*
X284866Y94022D01*
X283496Y93592D01*
X282146Y93592D01*
X280776Y94022D01*
X280326Y94482D01*
X279866Y95392D01*
G54D11*
X264036Y80842D02*
X263586Y81752D01*
X262696Y82672D01*
X261776Y83132D01*
X259946Y83132D01*
X259066Y82672D01*
X258146Y81752D01*
X257686Y80842D01*
X257236Y79492D01*
X257236Y77212D01*
X257686Y75862D01*
X258146Y74952D01*
X259066Y74032D01*
X259946Y73582D01*
X261776Y73582D01*
X262696Y74032D01*
X263586Y74952D01*
X264036Y75862D01*
X264036Y77212D01*
X261776Y77212D01*
G54D11*
X273416Y83132D02*
X273416Y73582D01*
X267036Y83132D01*
X267036Y73582D01*
G54D11*
X276406Y73582D02*
X279586Y73582D01*
X280956Y74032D01*
X281866Y74952D01*
X282326Y75862D01*
X282786Y77212D01*
X282786Y79492D01*
X282326Y80842D01*
X281866Y81752D01*
X280956Y82672D01*
X279586Y83132D01*
X276406Y83132D01*
X276406Y73582D01*
G54D11*
X264496Y53592D02*
X260866Y63142D01*
X257236Y53592D01*
G54D11*
X258606Y56762D02*
X263146Y56762D01*
G54D11*
X273866Y63142D02*
X273866Y53592D01*
X267496Y63142D01*
X267496Y53592D01*
G54D11*
X280046Y63142D02*
X280046Y53592D01*
G54D11*
X276866Y63142D02*
X283246Y63142D01*
G54D11*
X176007Y200862D02*
X175547Y201772D01*
X174657Y202662D01*
X173737Y203122D01*
X171917Y203122D01*
X170997Y202662D01*
X170107Y201772D01*
X169657Y200862D01*
X169197Y199482D01*
X169197Y197222D01*
X169657Y195852D01*
X170107Y194942D01*
X170997Y194022D01*
X171917Y193592D01*
X173737Y193592D01*
X174657Y194022D01*
X175547Y194942D01*
X176007Y195852D01*
X176007Y197222D01*
X173737Y197222D01*
G54D11*
X185377Y203122D02*
X185377Y193592D01*
X178997Y203122D01*
X178997Y193592D01*
G54D11*
X188377Y193592D02*
X191547Y193592D01*
X192917Y194022D01*
X193837Y194942D01*
X194287Y195852D01*
X194747Y197222D01*
X194747Y199482D01*
X194287Y200862D01*
X193837Y201772D01*
X192917Y202662D01*
X191547Y203122D01*
X188377Y203122D01*
X188377Y193592D01*
G54D11*
X176457Y173582D02*
X176457Y183132D01*
X172827Y173582D01*
X169197Y183132D01*
X169197Y173582D01*
G54D11*
X179457Y183132D02*
X179457Y173582D01*
G54D11*
X188827Y181752D02*
X187917Y182672D01*
X186547Y183132D01*
X184737Y183132D01*
X183367Y182672D01*
X182457Y181752D01*
X182457Y180842D01*
X182907Y179952D01*
X183367Y179492D01*
X184287Y179042D01*
X186997Y178122D01*
X187917Y177672D01*
X188377Y177212D01*
X188827Y176322D01*
X188827Y174952D01*
X187917Y174032D01*
X186547Y173582D01*
X184737Y173582D01*
X183367Y174032D01*
X182457Y174952D01*
G54D11*
X196377Y183132D02*
X194547Y183132D01*
X193657Y182672D01*
X192737Y181752D01*
X192287Y180842D01*
X191827Y179492D01*
X191827Y177212D01*
X192287Y175862D01*
X192737Y174952D01*
X193657Y174032D01*
X194547Y173582D01*
X196377Y173582D01*
X197287Y174032D01*
X198207Y174952D01*
X198637Y175862D01*
X199087Y177212D01*
X199087Y179492D01*
X198637Y180842D01*
X198207Y181752D01*
X197287Y182672D01*
X196377Y183132D01*
G54D11*
X176457Y153592D02*
X176457Y163142D01*
X172827Y153592D01*
X169197Y163142D01*
X169197Y153592D01*
G54D11*
X184007Y163142D02*
X182197Y163142D01*
X181287Y162682D01*
X180367Y161762D01*
X179917Y160852D01*
X179457Y159482D01*
X179457Y157222D01*
X179917Y155852D01*
X180367Y154932D01*
X181287Y154042D01*
X182197Y153592D01*
X184007Y153592D01*
X184917Y154042D01*
X185837Y154932D01*
X186287Y155852D01*
X186747Y157222D01*
X186747Y159482D01*
X186287Y160852D01*
X185837Y161762D01*
X184917Y162682D01*
X184007Y163142D01*
G54D11*
X196097Y161762D02*
X195177Y162682D01*
X193837Y163142D01*
X192007Y163142D01*
X190657Y162682D01*
X189747Y161762D01*
X189747Y160852D01*
X190197Y159942D01*
X190657Y159482D01*
X191547Y159022D01*
X194287Y158132D01*
X195177Y157682D01*
X195637Y157222D01*
X196097Y156302D01*
X196097Y154932D01*
X195177Y154042D01*
X193837Y153592D01*
X192007Y153592D01*
X190657Y154042D01*
X189747Y154932D01*
G54D11*
X199087Y163142D02*
X199087Y153592D01*
G54D11*
X174557Y141752D02*
X173637Y142662D01*
X172297Y143122D01*
X170467Y143122D01*
X169097Y142662D01*
X168207Y141752D01*
X168207Y140862D01*
X168637Y139952D01*
X169097Y139492D01*
X170007Y139032D01*
X172727Y138122D01*
X173637Y137662D01*
X174097Y137202D01*
X174557Y136312D01*
X174557Y134942D01*
X173637Y134032D01*
X172297Y133572D01*
X170467Y133572D01*
X169097Y134032D01*
X168207Y134942D01*
G54D11*
X184387Y140862D02*
X183927Y141752D01*
X183017Y142662D01*
X182097Y143122D01*
X180297Y143122D01*
X179377Y142662D01*
X178467Y141752D01*
X178007Y140862D01*
X177547Y139492D01*
X177547Y137202D01*
X178007Y135862D01*
X178467Y134942D01*
X179377Y134032D01*
X180297Y133572D01*
X182097Y133572D01*
X183017Y134032D01*
X183927Y134942D01*
X184387Y135862D01*
G54D11*
X187377Y143122D02*
X187377Y133572D01*
G54D11*
X193727Y143122D02*
X187377Y136772D01*
G54D11*
X189647Y139032D02*
X193727Y133572D01*
G54D11*
X174557Y124122D02*
X174557Y114572D01*
X168207Y124122D01*
X168207Y114572D01*
G54D11*
X183927Y122752D02*
X183017Y123662D01*
X181637Y124122D01*
X179837Y124122D01*
X178467Y123662D01*
X177547Y122752D01*
X177547Y121862D01*
X178007Y120952D01*
X178467Y120492D01*
X179377Y120032D01*
X182097Y119122D01*
X183017Y118662D01*
X183467Y118202D01*
X183927Y117312D01*
X183927Y115942D01*
X183017Y115032D01*
X181637Y114572D01*
X179837Y114572D01*
X178467Y115032D01*
X177547Y115942D01*
G54D11*
X193277Y122752D02*
X192387Y123662D01*
X191017Y124122D01*
X189187Y124122D01*
X187837Y123662D01*
X186927Y122752D01*
X186927Y121862D01*
X187377Y120952D01*
X187837Y120492D01*
X188727Y120032D01*
X191467Y119122D01*
X192387Y118662D01*
X192817Y118202D01*
X193277Y117312D01*
X193277Y115942D01*
X192387Y115032D01*
X191017Y114572D01*
X189187Y114572D01*
X187837Y115032D01*
X186927Y115942D01*
G54D11*
X169197Y99592D02*
X173287Y99592D01*
X174657Y100042D01*
X175117Y100502D01*
X175547Y101392D01*
X175547Y102302D01*
X175117Y103222D01*
X174657Y103682D01*
X173287Y104132D01*
X169197Y104132D01*
X169197Y94582D01*
G54D11*
X172367Y99592D02*
X175547Y94582D01*
G54D11*
X184917Y102762D02*
X184007Y103682D01*
X182657Y104132D01*
X180827Y104132D01*
X179457Y103682D01*
X178567Y102762D01*
X178567Y101852D01*
X178997Y100932D01*
X179457Y100502D01*
X180367Y100042D01*
X183087Y99132D01*
X184007Y98672D01*
X184457Y98212D01*
X184917Y97302D01*
X184917Y95952D01*
X184007Y95042D01*
X182657Y94582D01*
X180827Y94582D01*
X179457Y95042D01*
X178567Y95952D01*
G54D11*
X191087Y104132D02*
X191087Y94582D01*
G54D11*
X187917Y104132D02*
X194287Y104132D01*
G54D11*
X168177Y74132D02*
X171377Y74132D01*
X172727Y74592D01*
X173637Y75482D01*
X174097Y76402D01*
X174557Y77772D01*
X174557Y80032D01*
X174097Y81402D01*
X173637Y82312D01*
X172727Y83232D01*
X171377Y83692D01*
X168177Y83692D01*
X168177Y74132D01*
G54D11*
X177547Y83692D02*
X177547Y74132D01*
G54D11*
X185097Y83692D02*
X183297Y83692D01*
X182377Y83232D01*
X181467Y82312D01*
X181007Y81402D01*
X180547Y80032D01*
X180547Y77772D01*
X181007Y76402D01*
X181467Y75482D01*
X182377Y74592D01*
X183297Y74132D01*
X185097Y74132D01*
X186007Y74592D01*
X186927Y75482D01*
X187377Y76402D01*
X187837Y77772D01*
X187837Y80032D01*
X187377Y81402D01*
X186927Y82312D01*
X186007Y83232D01*
X185097Y83692D01*
G54D11*
X196267Y83692D02*
X191727Y83692D01*
X191297Y79602D01*
X191727Y80032D01*
X193097Y80482D01*
X194467Y80482D01*
X195837Y80032D01*
X196727Y79142D01*
X197187Y77772D01*
X197187Y76852D01*
X196727Y75482D01*
X195837Y74592D01*
X194467Y74132D01*
X193097Y74132D01*
X191727Y74592D01*
X191297Y75052D01*
X190837Y75942D01*
G54D11*
X175007Y61842D02*
X174557Y62762D01*
X173637Y63672D01*
X172727Y64132D01*
X170927Y64132D01*
X170007Y63672D01*
X169097Y62762D01*
X168637Y61842D01*
X168207Y60502D01*
X168207Y58212D01*
X168637Y56862D01*
X169097Y55952D01*
X170007Y55032D01*
X170927Y54582D01*
X172727Y54582D01*
X173637Y55032D01*
X174557Y55952D01*
X175007Y56862D01*
X175007Y58212D01*
X172727Y58212D01*
G54D11*
X184387Y64132D02*
X184387Y54582D01*
X178007Y64132D01*
X178007Y54582D01*
G54D11*
X187377Y54582D02*
X190557Y54582D01*
X191927Y55032D01*
X192817Y55952D01*
X193277Y56862D01*
X193727Y58212D01*
X193727Y60502D01*
X193277Y61842D01*
X192817Y62762D01*
X191927Y63672D01*
X190557Y64132D01*
X187377Y64132D01*
X187377Y54582D01*
G54D15*
G75*
G01X378619Y99616D02*
G03X365919Y112316I-12700J0D01*
G01*
G54D15*
X378619Y99616D02*
X378619Y48816D01*
X619919Y48816D01*
X619919Y379016D01*
X365919Y379016D01*
X365919Y112316D01*
G54D10*
X400335Y300910D02*
X402335Y299799D01*
X403002Y298688D01*
X403002Y296466D01*
G54D10*
X397669Y296466D02*
X397669Y305355D01*
X401002Y305355D01*
X402335Y304799D01*
X403002Y303688D01*
X403002Y302577D01*
X402335Y301466D01*
X401002Y300910D01*
X397669Y300910D01*
G54D10*
X405446Y298132D02*
X406112Y297021D01*
X407446Y296466D01*
X408779Y296466D01*
X410112Y297021D01*
X410779Y298132D01*
X410779Y299243D01*
X410112Y300355D01*
X408779Y300910D01*
X407446Y300910D01*
X406112Y301466D01*
X405446Y302577D01*
X405446Y303688D01*
X406112Y304799D01*
X407446Y305355D01*
X408779Y305355D01*
X410112Y304799D01*
X410779Y303688D01*
G54D10*
X415889Y296466D02*
X415889Y305355D01*
G54D10*
X413223Y305355D02*
X418556Y305355D01*
G54D10*
X397669Y271066D02*
X401002Y279955D01*
X404335Y271066D01*
G54D10*
X399002Y274399D02*
X403002Y274399D01*
G54D10*
X412113Y278288D02*
X412113Y272732D01*
X411446Y271621D01*
X410113Y271066D01*
X408780Y271066D01*
X407446Y271621D01*
X406780Y272732D01*
X406780Y278288D01*
X407446Y279399D01*
X408780Y279955D01*
X410113Y279955D01*
X411446Y279399D01*
X412113Y278288D01*
G54D10*
X397669Y245666D02*
X397669Y254555D01*
X401002Y254555D01*
X402335Y253999D01*
X403002Y252888D01*
X403002Y247332D01*
X402335Y246221D01*
X401002Y245666D01*
X397669Y245666D01*
G54D10*
X410779Y252888D02*
X410779Y247332D01*
X410112Y246221D01*
X408779Y245666D01*
X407446Y245666D01*
X406112Y246221D01*
X405446Y247332D01*
X405446Y252888D01*
X406112Y253999D01*
X407446Y254555D01*
X408779Y254555D01*
X410112Y253999D01*
X410779Y252888D01*
G54D10*
X397669Y220266D02*
X397669Y229155D01*
X401002Y229155D01*
X402335Y228599D01*
X403002Y227488D01*
X403002Y221932D01*
X402335Y220821D01*
X401002Y220266D01*
X397669Y220266D01*
G54D10*
X410779Y229155D02*
X405446Y229155D01*
X405446Y225266D01*
X406112Y225266D01*
X407446Y225821D01*
X408779Y225821D01*
X410112Y225266D01*
X410779Y224155D01*
X410779Y221932D01*
X410112Y220821D01*
X408779Y220266D01*
X407446Y220266D01*
X406112Y220821D01*
X405446Y221932D01*
G54D10*
X397669Y194866D02*
X397669Y203755D01*
X401002Y203755D01*
X402335Y203199D01*
X403002Y202088D01*
X403002Y196532D01*
X402335Y195421D01*
X401002Y194866D01*
X397669Y194866D01*
G54D10*
X410779Y202088D02*
X410112Y203199D01*
X408779Y203755D01*
X407446Y203755D01*
X406112Y203199D01*
X405446Y202088D01*
X405446Y199310D01*
X405446Y198755D01*
X407446Y199866D01*
X408779Y199866D01*
X410112Y199310D01*
X410779Y198199D01*
X410779Y196532D01*
X410112Y195421D01*
X408779Y194866D01*
X407446Y194866D01*
X406112Y195421D01*
X405446Y196532D01*
X405446Y199310D01*
G54D10*
X397669Y169466D02*
X397669Y178355D01*
X401002Y178355D01*
X402335Y177799D01*
X403002Y176688D01*
X403002Y171132D01*
X402335Y170021D01*
X401002Y169466D01*
X397669Y169466D01*
G54D10*
X405446Y178355D02*
X410779Y178355D01*
X410112Y177243D01*
X408779Y175577D01*
X407446Y173355D01*
X406779Y171688D01*
X406779Y169466D01*
G54D10*
X397669Y144066D02*
X397669Y152955D01*
X401002Y152955D01*
X402335Y152399D01*
X403002Y151288D01*
X403002Y145732D01*
X402335Y144621D01*
X401002Y144066D01*
X397669Y144066D01*
G54D10*
X408779Y148510D02*
X407446Y148510D01*
X406112Y149066D01*
X405446Y150177D01*
X405446Y151288D01*
X406112Y152399D01*
X407446Y152955D01*
X408779Y152955D01*
X410112Y152399D01*
X410779Y151288D01*
X410779Y150177D01*
X410112Y149066D01*
X408779Y148510D01*
X410112Y147955D01*
X410779Y146843D01*
X410779Y145732D01*
X410112Y144621D01*
X408779Y144066D01*
X407446Y144066D01*
X406112Y144621D01*
X405446Y145732D01*
X405446Y146843D01*
X406112Y147955D01*
X407446Y148510D01*
G54D10*
X397669Y125888D02*
X398335Y126999D01*
X399669Y127555D01*
X401002Y127555D01*
X402335Y126999D01*
X403002Y125888D01*
X403002Y124777D01*
X402335Y123666D01*
X401002Y123110D01*
X402335Y122555D01*
X403002Y121443D01*
X403002Y120332D01*
X402335Y119221D01*
X401002Y118666D01*
X399669Y118666D01*
X398335Y119221D01*
X397669Y120332D01*
G54D10*
X405446Y127555D02*
X408779Y118666D01*
X412112Y127555D01*
G54D10*
X414557Y125888D02*
X415223Y126999D01*
X416557Y127555D01*
X417890Y127555D01*
X419223Y126999D01*
X419890Y125888D01*
X419890Y124777D01*
X419223Y123666D01*
X417890Y123110D01*
X419223Y122555D01*
X419890Y121443D01*
X419890Y120332D01*
X419223Y119221D01*
X417890Y118666D01*
X416557Y118666D01*
X415223Y119221D01*
X414557Y120332D01*
G54D10*
X578135Y296466D02*
X578135Y305355D01*
G54D10*
X575469Y305355D02*
X580802Y305355D01*
G54D10*
X583246Y305355D02*
X589912Y296466D01*
G54D10*
X583246Y296466D02*
X589912Y305355D01*
G54D10*
X578135Y275510D02*
X580135Y274399D01*
X580802Y273288D01*
X580802Y271066D01*
G54D10*
X575469Y271066D02*
X575469Y279955D01*
X578802Y279955D01*
X580135Y279399D01*
X580802Y278288D01*
X580802Y277177D01*
X580135Y276066D01*
X578802Y275510D01*
X575469Y275510D01*
G54D10*
X583246Y279955D02*
X589912Y271066D01*
G54D10*
X583246Y271066D02*
X589912Y279955D01*
G54D10*
X575469Y245666D02*
X575469Y254555D01*
X578802Y254555D01*
X580135Y253999D01*
X580802Y252888D01*
X580802Y247332D01*
X580135Y246221D01*
X578802Y245666D01*
X575469Y245666D01*
G54D10*
X583246Y251221D02*
X586579Y254555D01*
X586579Y245666D01*
G54D10*
X575469Y220266D02*
X575469Y229155D01*
X578802Y229155D01*
X580135Y228599D01*
X580802Y227488D01*
X580802Y221932D01*
X580135Y220821D01*
X578802Y220266D01*
X575469Y220266D01*
G54D10*
X588579Y220266D02*
X583246Y220266D01*
X583246Y220821D01*
X583912Y221932D01*
X587912Y225266D01*
X588579Y226377D01*
X588579Y227488D01*
X587912Y228599D01*
X586579Y229155D01*
X585246Y229155D01*
X583912Y228599D01*
X583246Y227488D01*
G54D10*
X575469Y194866D02*
X575469Y203755D01*
X578802Y203755D01*
X580135Y203199D01*
X580802Y202088D01*
X580802Y196532D01*
X580135Y195421D01*
X578802Y194866D01*
X575469Y194866D01*
G54D10*
X583246Y202088D02*
X583912Y203199D01*
X585246Y203755D01*
X586579Y203755D01*
X587912Y203199D01*
X588579Y202088D01*
X588579Y200977D01*
X587912Y199866D01*
X586579Y199310D01*
X587912Y198755D01*
X588579Y197643D01*
X588579Y196532D01*
X587912Y195421D01*
X586579Y194866D01*
X585246Y194866D01*
X583912Y195421D01*
X583246Y196532D01*
G54D10*
X575469Y169466D02*
X575469Y178355D01*
X578802Y178355D01*
X580135Y177799D01*
X580802Y176688D01*
X580802Y171132D01*
X580135Y170021D01*
X578802Y169466D01*
X575469Y169466D01*
G54D10*
X587246Y169466D02*
X587246Y178355D01*
X583246Y172799D01*
X583246Y171688D01*
X588579Y171688D01*
G54D10*
X578135Y148510D02*
X580802Y148510D01*
X580802Y145732D01*
X580135Y144621D01*
X578802Y144066D01*
X577469Y144066D01*
X576135Y144621D01*
X575469Y145732D01*
X575469Y151288D01*
X576135Y152399D01*
X577469Y152955D01*
X578802Y152955D01*
X580135Y152399D01*
X580802Y151288D01*
G54D10*
X583246Y144066D02*
X583246Y152955D01*
X588579Y144066D01*
X588579Y152955D01*
G54D10*
X591023Y144066D02*
X591023Y152955D01*
X594356Y152955D01*
X595689Y152399D01*
X596356Y151288D01*
X596356Y145732D01*
X595689Y144621D01*
X594356Y144066D01*
X591023Y144066D01*
G54D10*
X580802Y127555D02*
X575469Y127555D01*
X575469Y123666D01*
X576135Y123666D01*
X577469Y124221D01*
X578802Y124221D01*
X580135Y123666D01*
X580802Y122555D01*
X580802Y120332D01*
X580135Y119221D01*
X578802Y118666D01*
X577469Y118666D01*
X576135Y119221D01*
X575469Y120332D01*
G54D10*
X583246Y127555D02*
X586579Y118666D01*
X589912Y127555D01*
G54D16*
X627419Y367016D02*
X627419Y367016D01*
G54D17*
X242491Y423781D02*
X242491Y406003D01*
X251824Y406003D01*
G54D17*
X268712Y420448D02*
X268712Y409336D01*
X267379Y407114D01*
X264712Y406003D01*
X262046Y406003D01*
X259379Y407114D01*
X258046Y409336D01*
X258046Y420448D01*
X259379Y422670D01*
X262046Y423781D01*
X264712Y423781D01*
X267379Y422670D01*
X268712Y420448D01*
G54D17*
X280268Y414892D02*
X284268Y412670D01*
X285601Y410448D01*
X285601Y406003D01*
G54D17*
X274935Y406003D02*
X274935Y423781D01*
X281601Y423781D01*
X284268Y422670D01*
X285601Y420448D01*
X285601Y418225D01*
X284268Y416003D01*
X281601Y414892D01*
X274935Y414892D01*
G54D17*
X291824Y406003D02*
X298490Y423781D01*
X305157Y406003D01*
G54D17*
X294490Y412670D02*
X302490Y412670D01*
G54D17*
X323201Y414892D02*
X328534Y414892D01*
X328534Y409336D01*
X327201Y407114D01*
X324534Y406003D01*
X321868Y406003D01*
X319201Y407114D01*
X317868Y409336D01*
X317868Y420448D01*
X319201Y422670D01*
X321868Y423781D01*
X324534Y423781D01*
X327201Y422670D01*
X328534Y420448D01*
G54D17*
X334757Y414892D02*
X337423Y416003D01*
X340623Y416003D01*
X342757Y413781D01*
X342757Y406003D01*
G54D17*
X342757Y409336D02*
X341423Y411559D01*
X338757Y412003D01*
X336090Y411559D01*
X334757Y409336D01*
X335290Y407114D01*
X337423Y406003D01*
X338757Y406003D01*
X339290Y406003D01*
X341423Y407114D01*
X342757Y409336D01*
G54D17*
X351645Y423781D02*
X351645Y407114D01*
X352979Y406003D01*
X354312Y406448D01*
G54D17*
X348979Y416003D02*
X354312Y416003D01*
G54D17*
X368534Y407114D02*
X366400Y406003D01*
X363734Y406003D01*
X361067Y407114D01*
X360534Y409336D01*
X360534Y413114D01*
X361867Y415336D01*
X364534Y416003D01*
X367200Y415336D01*
X368534Y413781D01*
X368534Y411559D01*
X360534Y411559D01*
G54D17*
X374756Y416003D02*
X378756Y406003D01*
X382756Y416003D01*
X386756Y406003D01*
X389422Y416003D01*
G54D17*
X395645Y414892D02*
X398311Y416003D01*
X401511Y416003D01*
X403645Y413781D01*
X403645Y406003D01*
G54D17*
X403645Y409336D02*
X402311Y411559D01*
X399645Y412003D01*
X396978Y411559D01*
X395645Y409336D01*
X396178Y407114D01*
X398311Y406003D01*
X399645Y406003D01*
X400178Y406003D01*
X402311Y407114D01*
X403645Y409336D01*
G54D17*
X409867Y416003D02*
X415200Y406003D01*
X420533Y416003D01*
G54D17*
X415200Y406003D02*
X413867Y402670D01*
X412533Y401559D01*
X411200Y401559D01*
G54D17*
X433245Y417114D02*
X439911Y423781D01*
X439911Y406003D01*
G54D17*
X456800Y409336D02*
X455467Y407114D01*
X452800Y406003D01*
X450134Y406003D01*
X447467Y407114D01*
X446134Y409336D01*
X446134Y420448D01*
X447467Y422670D01*
X450134Y423781D01*
X452800Y423781D01*
X455467Y422670D01*
X456800Y420448D01*
G54D17*
X463023Y406003D02*
X463023Y423781D01*
G54D17*
X473689Y406003D02*
X473689Y423781D01*
G54D17*
X463023Y414892D02*
X473689Y414892D01*
G54D10*
X242094Y389334D02*
X242094Y398223D01*
G54D10*
X242094Y392890D02*
X242760Y394001D01*
X244094Y394334D01*
X245427Y394001D01*
X246094Y392890D01*
X246094Y389334D01*
G54D10*
X249871Y398223D02*
X249871Y389890D01*
X250538Y389334D01*
X251204Y389557D01*
G54D10*
X248538Y394334D02*
X251204Y394334D01*
G54D10*
X254982Y398223D02*
X254982Y389890D01*
X255649Y389334D01*
X256315Y389557D01*
G54D10*
X253649Y394334D02*
X256315Y394334D01*
G54D10*
X258760Y394334D02*
X258760Y387112D01*
G54D10*
X258760Y391001D02*
X259426Y389557D01*
X260760Y389334D01*
X262093Y389557D01*
X262760Y390668D01*
X262760Y392890D01*
X262093Y394001D01*
X260760Y394334D01*
X259426Y394001D01*
X258760Y392668D01*
G54D10*
X265204Y389890D02*
X266537Y389334D01*
X267870Y389334D01*
X269204Y389890D01*
X269204Y391001D01*
X268537Y391557D01*
X265870Y392112D01*
X265204Y392668D01*
X265204Y393779D01*
X266537Y394334D01*
X267870Y394334D01*
X269204Y393779D01*
G54D10*
X271648Y389334D02*
X271648Y389334D01*
G54D10*
X271648Y394334D02*
X271648Y394334D01*
G54D10*
X274092Y389334D02*
X279425Y398223D01*
G54D10*
X281869Y389334D02*
X287202Y398223D01*
G54D10*
X289646Y387668D02*
X290979Y387112D01*
X291912Y387112D01*
X293246Y387668D01*
X293646Y388779D01*
X293646Y394334D01*
G54D10*
X293646Y392890D02*
X292979Y394001D01*
X291646Y394334D01*
X290312Y394001D01*
X289646Y392890D01*
X289646Y390668D01*
X290312Y389557D01*
X291646Y389334D01*
X292979Y389557D01*
X293646Y390668D01*
G54D10*
X296090Y389334D02*
X296090Y394334D01*
G54D10*
X296090Y396001D02*
X296090Y396001D01*
G54D10*
X299867Y398223D02*
X299867Y389890D01*
X300534Y389334D01*
X301200Y389557D01*
G54D10*
X298534Y394334D02*
X301200Y394334D01*
G54D10*
X303645Y389334D02*
X303645Y398223D01*
G54D10*
X303645Y392890D02*
X304311Y394001D01*
X305645Y394334D01*
X306978Y394001D01*
X307645Y392890D01*
X307645Y389334D01*
G54D10*
X314089Y394334D02*
X314089Y389334D01*
G54D10*
X314089Y390445D02*
X313422Y389557D01*
X312089Y389334D01*
X310755Y389557D01*
X310089Y390445D01*
X310089Y394334D01*
G54D10*
X316533Y389334D02*
X316533Y398223D01*
G54D10*
X316533Y392890D02*
X317199Y394001D01*
X318533Y394334D01*
X319866Y394001D01*
X320533Y392890D01*
X320533Y390668D01*
X319866Y389557D01*
X318533Y389334D01*
X317199Y389557D01*
X316533Y390668D01*
G54D10*
X322977Y389334D02*
X322977Y389334D01*
G54D10*
X328754Y394001D02*
X327421Y394334D01*
X326087Y394001D01*
X325421Y392890D01*
X325421Y390668D01*
X326087Y389557D01*
X327421Y389334D01*
X328754Y389557D01*
G54D10*
X335198Y390668D02*
X335198Y392890D01*
X334531Y394001D01*
X333198Y394334D01*
X331864Y394001D01*
X331198Y392890D01*
X331198Y390668D01*
X331864Y389557D01*
X333198Y389334D01*
X334531Y389557D01*
X335198Y390668D01*
G54D10*
X337642Y389334D02*
X337642Y394334D01*
G54D10*
X337642Y393445D02*
X338975Y394334D01*
X340308Y394001D01*
X340975Y393223D01*
X340975Y389334D01*
G54D10*
X340975Y393445D02*
X342308Y394334D01*
X343642Y394001D01*
X344308Y393223D01*
X344308Y389334D01*
G54D10*
X346753Y389334D02*
X352086Y398223D01*
G54D10*
X358530Y389334D02*
X358530Y398223D01*
G54D10*
X358530Y392890D02*
X357863Y394001D01*
X356530Y394334D01*
X355196Y394001D01*
X354530Y392890D01*
X354530Y390668D01*
X355196Y389557D01*
X356530Y389334D01*
X357863Y389557D01*
X358530Y390668D01*
G54D10*
X360974Y393779D02*
X362307Y394334D01*
X363907Y394334D01*
X364974Y393223D01*
X364974Y389334D01*
G54D10*
X364974Y391001D02*
X364307Y392112D01*
X362974Y392334D01*
X361640Y392112D01*
X360974Y391001D01*
X361240Y389890D01*
X362307Y389334D01*
X362974Y389334D01*
X363240Y389334D01*
X364307Y389890D01*
X364974Y391001D01*
G54D10*
X367418Y389334D02*
X367418Y394334D01*
G54D10*
X367418Y393223D02*
X368084Y394001D01*
X369418Y394334D01*
X370751Y394001D01*
X371418Y393223D01*
X371418Y389334D01*
G54D10*
X373862Y394334D02*
X376528Y389334D01*
X379195Y394334D01*
G54D10*
X376528Y389334D02*
X375862Y387668D01*
X375195Y387112D01*
X374528Y387112D01*
G54D10*
X381639Y387668D02*
X382972Y387112D01*
X383905Y387112D01*
X385239Y387668D01*
X385639Y388779D01*
X385639Y394334D01*
G54D10*
X385639Y392890D02*
X384972Y394001D01*
X383639Y394334D01*
X382305Y394001D01*
X381639Y392890D01*
X381639Y390668D01*
X382305Y389557D01*
X383639Y389334D01*
X384972Y389557D01*
X385639Y390668D01*
G54D10*
X392083Y394334D02*
X392083Y389334D01*
G54D10*
X392083Y390445D02*
X391416Y389557D01*
X390083Y389334D01*
X388749Y389557D01*
X388083Y390445D01*
X388083Y394334D01*
G54D10*
X395860Y398223D02*
X395860Y389890D01*
X396527Y389334D01*
X397193Y389557D01*
G54D10*
X394527Y394334D02*
X397193Y394334D01*
G54D10*
X399638Y389334D02*
X399638Y394334D01*
G54D10*
X399638Y393445D02*
X400971Y394334D01*
X402304Y394001D01*
X402971Y393223D01*
X402971Y389334D01*
G54D10*
X402971Y393445D02*
X404304Y394334D01*
X405638Y394001D01*
X406304Y393223D01*
X406304Y389334D01*
G54D10*
X408749Y393779D02*
X410082Y394334D01*
X411682Y394334D01*
X412749Y393223D01*
X412749Y389334D01*
G54D10*
X412749Y391001D02*
X412082Y392112D01*
X410749Y392334D01*
X409415Y392112D01*
X408749Y391001D01*
X409015Y389890D01*
X410082Y389334D01*
X410749Y389334D01*
X411015Y389334D01*
X412082Y389890D01*
X412749Y391001D01*
G54D10*
X415193Y389334D02*
X415193Y394334D01*
G54D10*
X415193Y393223D02*
X415859Y394001D01*
X417193Y394334D01*
X418526Y394001D01*
X419193Y393223D01*
X419193Y389334D01*
G54D10*
X421637Y389334D02*
X421637Y394334D01*
G54D10*
X421637Y393223D02*
X422303Y394001D01*
X423637Y394334D01*
X424970Y394001D01*
X425637Y393223D01*
X425637Y389334D01*
M02*
