; Drill file
; Format: 2.4 (00.0000)
M48
INCH
T01C0.0118
T02C0.0394
%
G05
G90
T01
X004860Y002310
X004860Y007820
X012920Y005450
X018810Y014520
X022530Y014480
T02
X011980Y001020
X014910Y004920
X014910Y005920
X014910Y006920
X014910Y007920
X014910Y008920
X014910Y009920
X014910Y010920
X014910Y011920
X009390Y013800
X004860Y013800
X023910Y011920
X023910Y010920
X023910Y009920
X023910Y008920
X023910Y007920
X023910Y006920
X023910Y005920
X023910Y004920
M30
